<?xml version="1.0" encoding="utf-8"?>
<!-- Generator: Adobe Illustrator 26.5.0, SVG Export Plug-In . SVG Version: 6.00 Build 0)  -->
<svg version="1.1" id="圖層_1" xmlns="http://www.w3.org/2000/svg" xmlns:xlink="http://www.w3.org/1999/xlink" x="0px" y="0px"
	 viewBox="0 0 216 216" style="enable-background:new 0 0 216 216;" xml:space="preserve">
<style type="text/css">
	.st0{fill:none;stroke:#FFFFFF;stroke-width:2;}
	.st1{fill:#FFFFFF;}
</style>
<circle class="st0" cx="108" cy="108" r="107"/>
<g>
	<g>
		<rect x="64.1" y="84.2" class="st1" width="86.3" height="4.9"/>
		<path class="st1" d="M141.9,66.1c-12.2-8.5-22.6-18.1-31.2-28.6h-5.9c-4.2,5.4-8.9,10.7-14.2,15.9c-8.3,8-17.5,15.3-27.7,21.9
			C52.7,81.8,42.1,87.3,31,91.7c0.7,0.5,1.3,1.1,1.9,1.9c0.7,0.7,1.2,1.3,1.7,1.9c11.1-4.5,21.7-10.2,31.9-17
			c10.3-6.8,19.7-14.3,28-22.6c4.9-4.8,9.3-9.7,13.2-14.7c5.6,6.6,11.6,12.7,18.2,18.4c7.7,6.6,16.1,12.8,25.3,18.7
			c9.2,5.8,19.1,11.3,29.9,16.6c0.5-0.8,1-1.6,1.7-2.4c0.8-0.9,1.5-1.6,2.2-2C169,82.9,154.6,74.8,141.9,66.1z"/>
		<path class="st1" d="M62.4,169.2h90.9h5.1v-53.9H57.5v53.9H62.4z M62.4,120.4h90.9v43.7H62.4V120.4z"/>
	</g>
</g>
</svg>
