<?xml version="1.0" encoding="UTF-8"?>
<svg id="_圖層_2" data-name="圖層 2" xmlns="http://www.w3.org/2000/svg" viewBox="0 0 113.94 113.94">
  <path d="M56.97,0C25.5,0,0,25.51,0,56.97s25.5,56.97,56.97,56.97,56.97-25.5,56.97-56.97S88.43,0,56.97,0Zm43.85,72.44c-7.24,5.85-21.91,10.79-32.96,11.79-3.56,.32-6.9,.54-10.03,.66-.06,1.19-.13,2.43-.19,3.72-.06-1.29-.13-2.52-.19-3.7-35.74,1.4-43.97-9.2-44.01-15.32,.02,.33,.31,2.41,4.24,4.42,4.84,2.48,21.07,3.78,39.21,2.88-1.71-17.72-6.37-18.72-30.88-19.92,24.51-1.19,29.17-2.19,30.88-19.91-5.59,.28-11.36,.77-17.04,1.49-13.23,1.69-24.67,4.57-28.54,9.46-3.56,4.5,4.43,8.48,13.11,8.92-4.65-.13-9.4-.66-13.42-3.27-5.27-3.8-1.99-8.85,2.11-12.16,7.25-5.84,21.91-10.79,32.96-11.79,4.08-.37,7.87-.6,11.38-.72,.07-1.16,.13-2.38,.19-3.65,.06,1.27,.12,2.48,.19,3.64,34.43-1.07,42.54,9.23,42.65,15.29-.07-.51-.55-2.45-4.23-4.33-4.72-2.42-20.27-3.71-37.86-2.95,1.7,17.78,6.34,18.79,30.89,19.98-.11,.01-.21,.01-.31,.02h-.07c-24.15,1.19-28.79,2.27-30.5,19.82,5.17-.28,10.47-.75,15.68-1.41,13.24-1.69,24.68-4.57,28.55-9.46,3.55-4.5-4.44-8.49-13.11-8.93,4.64,.14,9.39,.67,13.41,3.27,5.27,3.8,2,8.85-2.11,12.16Z"/>
</svg>