<?xml version="1.0" encoding="UTF-8"?>
<svg id="_圖層_2" data-name="圖層 2" xmlns="http://www.w3.org/2000/svg" xmlns:xlink="http://www.w3.org/1999/xlink" viewBox="0 0 184.56 114">
  <defs>
    <style>
      .cls-1 {
        fill: #fff;
      }

      .cls-2 {
        fill: url(#_未命名漸層_4);
      }
    </style>
    <linearGradient id="_未命名漸層_4" data-name="未命名漸層 4" x1="70.56" y1="57" x2="184.56" y2="57" gradientUnits="userSpaceOnUse">
      <stop offset="0" stop-color="#f1ff01"/>
      <stop offset="1" stop-color="#3cfd01"/>
    </linearGradient>
  </defs>
  <path class="cls-1" d="M106.88,29.41c4.53,8.18,7.12,17.58,7.12,27.59,0,31.48-25.52,57-57,57S0,88.48,0,57,25.52,0,57,0c10.53,0,20.39,2.87,28.86,7.85-3.95,3.35-7.48,7.17-10.53,11.37-5.54-2.7-11.76-4.22-18.33-4.22-23.16,0-42,18.84-42,42s18.84,42,42,42,42-18.84,42-42c0-5.16-.94-10.11-2.65-14.68,2.42-5.12,6.05-9.55,10.53-12.91ZM27.52,45.75c-3.23,0-5.86,2.62-5.86,5.86s2.62,5.86,5.86,5.86,5.86-2.62,5.86-5.86-2.62-5.86-5.86-5.86Zm28.96,0c-3.23,0-5.86,2.62-5.86,5.86s2.62,5.86,5.86,5.86,5.86-2.62,5.86-5.86-2.62-5.86-5.86-5.86Zm-17.33,15.32c.1-.12,.68-.46,1.68-.46s1.58,.34,1.68,.46c.53,.69,1.51,.82,2.2,.3,.69-.53,.82-1.51,.3-2.2-.81-1.06-2.37-1.69-4.18-1.69s-3.37,.63-4.18,1.69c-.53,.69-.39,1.68,.3,2.21,.29,.22,.62,.32,.95,.32,.47,0,.94-.21,1.25-.62Zm15.41,4.35c.5-.68,.35-1.64-.34-2.14-.68-.5-1.64-.35-2.14,.34-2.14,2.94-6.32,4.77-10.9,4.77s-8.75-1.83-10.9-4.77c-.5-.68-1.46-.84-2.14-.34-.68,.5-.84,1.46-.34,2.14,2.71,3.72,7.83,6.03,13.37,6.03s10.67-2.31,13.37-6.03Z"/>
  <path class="cls-2" d="M184.56,57c0,31.48-25.52,57-57,57-10.53,0-20.39-2.87-28.86-7.85,3.95-3.35,7.48-7.17,10.53-11.37,5.54,2.7,11.76,4.22,18.33,4.22,23.16,0,42-18.84,42-42S150.72,15,127.56,15s-42,18.84-42,42c0,5.16,.94,10.1,2.65,14.67-2.41,5.12-6.05,9.55-10.53,12.91-4.53-8.18-7.12-17.58-7.12-27.59C70.56,25.52,96.08,0,127.56,0s57,25.52,57,57Zm-34.11-5.39c0,3.23,2.62,5.86,5.86,5.86s5.86-2.62,5.86-5.86-2.62-5.86-5.86-5.86-5.86,2.62-5.86,5.86Zm-28.96,0c0,3.23,2.62,5.86,5.86,5.86s5.86-2.62,5.86-5.86-2.62-5.86-5.86-5.86-5.86,2.62-5.86,5.86Zm24.43,10.08c.33,0,.67-.11,.95-.32,.69-.53,.82-1.51,.3-2.21-.81-1.06-2.37-1.69-4.18-1.69s-3.37,.63-4.18,1.69c-.53,.69-.39,1.68,.3,2.2,.69,.53,1.68,.39,2.2-.3,.1-.12,.68-.46,1.68-.46s1.58,.34,1.68,.46c.31,.41,.78,.62,1.25,.62Zm-3.28,9.76c5.54,0,10.67-2.31,13.37-6.03,.5-.68,.35-1.64-.34-2.14-.68-.5-1.64-.35-2.14,.34-2.14,2.94-6.32,4.77-10.9,4.77s-8.75-1.83-10.9-4.77c-.5-.68-1.46-.84-2.14-.34-.68,.5-.84,1.46-.34,2.14,2.71,3.72,7.83,6.03,13.37,6.03Z"/>
</svg>