<?xml version="1.0" encoding="UTF-8"?>
<svg id="_圖層_2" data-name="圖層 2" xmlns="http://www.w3.org/2000/svg" viewBox="0 0 67.83 61.08">
  <path d="M55.81,44.4c-16.73-4.28-40.4,7.04-41.22,7.35,.08-.1,26.09-30,23.61-44.64-.45-2.63-1.73-4.71-4.07-6.05-2.2-1.26-6.79-2.19-14.51,2.04C10.5,8.1,1.77,16.54,1.16,17.35c.79-.59,5.26-3.79,7.73-5.03,1.98-.99,4.03-1.91,6.3-1.59,5.69,.8,3.2,12.07,2.32,15.44-1.9,7.24-4.73,14.11-8.3,20.68-1.71,3.15-6.69,9.87-9.03,12.87-.44,.56-.03,1.37,.68,1.37,10.7,0,64.34,0,66.33,0,1.57,0,1.11-13.48-11.38-16.68Z"/>
</svg>