<?xml version="1.0" encoding="UTF-8"?>
<svg id="_圖層_2" data-name="圖層 2" xmlns="http://www.w3.org/2000/svg" viewBox="0 0 1380.95 393.65">
  <defs>
    <style>
      .cls-1 {
        fill: #fff;
      }
    </style>
  </defs>
  <g id="design">
    <g>
      <g>
        <path class="cls-1" d="M139.04,.02H7.63C3.42,.02,0,3.43,0,7.65V386.02c0,4.21,3.42,7.63,7.63,7.63H396.25c4.21,0,7.63-3.42,7.63-7.63v-107.68c0-4.21-3.42-7.63-7.63-7.63H154.3c-4.21,0-7.63-3.42-7.63-7.63V7.65c0-4.21-3.42-7.63-7.63-7.63Z"/>
        <path class="cls-1" d="M430.55,0h-2.62c-4.21,0-7.63,3.42-7.63,7.63V386c0,4.21,3.42,7.63,7.63,7.63h399.17c4.21,0,7.63-3.42,7.63-7.63v-94.87c0-4.21-3.42-7.63-7.63-7.63h-244.33c-8.73,0-15.81-7.08-15.81-15.81h0c0-8.73,7.08-15.81,15.81-15.81h244.33c4.21,0,7.63-3.42,7.63-7.63v-94.87c0-4.21-3.42-7.63-7.63-7.63h-244.33c-8.73,0-15.81-7.08-15.81-15.81h0c0-8.73,7.08-15.81,15.81-15.81h244.33c4.21,0,7.63-3.42,7.63-7.63V7.63c0-4.21-3.42-7.63-7.63-7.63H430.55Z"/>
        <path class="cls-1" d="M1265.59,102.5V7.63c0-4.21-3.42-7.63-7.63-7.63h-399.17c-4.21,0-7.63,3.42-7.63,7.63V386c0,4.21,3.42,7.63,7.63,7.63h399.17c4.21,0,7.63-3.42,7.63-7.63v-94.87c0-4.21-3.42-7.63-7.63-7.63h-244.33c-8.73,0-15.81-7.08-15.81-15.81h0c0-8.73,7.08-15.81,15.81-15.81h244.33c4.21,0,7.63-3.42,7.63-7.63v-94.87c0-4.21-3.42-7.63-7.63-7.63h-244.33c-8.73,0-15.81-7.08-15.81-15.81h0c0-8.73,7.08-15.81,15.81-15.81h244.33c4.21,0,7.63-3.42,7.63-7.63Z"/>
      </g>
      <g>
        <path class="cls-1" d="M1343.48,74.94c-20.66,0-37.47-16.81-37.47-37.47S1322.82,0,1343.48,0s37.47,16.81,37.47,37.47-16.81,37.47-37.47,37.47Zm0-73.69c-19.97,0-36.22,16.25-36.22,36.22s16.25,36.22,36.22,36.22,36.22-16.25,36.22-36.22-16.25-36.22-36.22-36.22Z"/>
        <g>
          <rect class="cls-1" x="1330.05" y="30.38" width="26.4" height="1.51"/>
          <path class="cls-1" d="M1353.85,24.83c-3.73-2.6-6.9-5.52-9.54-8.76h-1.81c-1.28,1.65-2.71,3.28-4.34,4.86-2.53,2.46-5.35,4.69-8.47,6.7-3.12,2.01-6.37,3.69-9.77,5.04,.21,.14,.4,.33,.57,.57,.21,.21,.38,.4,.52,.57,3.39-1.39,6.65-3.12,9.77-5.2,3.15-2.08,6.01-4.38,8.57-6.91,1.5-1.48,2.83-2.98,4.04-4.5,1.7,2.01,3.56,3.89,5.57,5.64,2.36,2.01,4.94,3.91,7.74,5.72,2.81,1.77,5.85,3.46,9.14,5.09,.14-.24,.31-.49,.52-.73,.24-.28,.47-.48,.68-.62-4.92-2.32-9.32-4.81-13.2-7.48Z"/>
          <path class="cls-1" d="M1329.53,56.36h29.36v-16.47h-30.86v16.47h1.51Zm0-14.91h27.8v13.35h-27.8v-13.35Z"/>
        </g>
      </g>
    </g>
  </g>
</svg>